<mxfile host="app.diagrams.net" modified="2023-03-27T08:25:19.556Z" agent="5.0 (Macintosh; Intel Mac OS X 10_15_7) AppleWebKit/537.36 (KHTML, like Gecko) Chrome/110.0.0.0 Safari/537.36" etag="8PiBidf_yx13tqpniTJB" version="21.0.8" type="github">
  <diagram name="第 1 页" id="gxxykPTM1EeHAOy4BDJM">
    <mxGraphModel dx="2562" dy="1120" grid="1" gridSize="10" guides="1" tooltips="1" connect="1" arrows="1" fold="1" page="1" pageScale="1" pageWidth="827" pageHeight="1169" math="0" shadow="0">
      <root>
        <mxCell id="0" />
        <mxCell id="1" parent="0" />
        <mxCell id="7WEZ1o1NPe2onoyEaOFd-10" value="工单调度配置流程" style="swimlane;childLayout=stackLayout;resizeParent=1;resizeParentMax=0;startSize=20;horizontal=0;horizontalStack=1;" vertex="1" parent="1">
          <mxGeometry x="-50" y="120" width="560" height="790" as="geometry">
            <mxRectangle x="140" y="130" width="40" height="140" as="alternateBounds" />
          </mxGeometry>
        </mxCell>
        <mxCell id="7WEZ1o1NPe2onoyEaOFd-11" value="工单接入方" style="swimlane;startSize=20;" vertex="1" parent="7WEZ1o1NPe2onoyEaOFd-10">
          <mxGeometry x="20" width="190" height="790" as="geometry" />
        </mxCell>
        <mxCell id="7WEZ1o1NPe2onoyEaOFd-22" value="" style="edgeStyle=orthogonalEdgeStyle;rounded=0;orthogonalLoop=1;jettySize=auto;html=1;" edge="1" parent="7WEZ1o1NPe2onoyEaOFd-11" source="7WEZ1o1NPe2onoyEaOFd-20" target="7WEZ1o1NPe2onoyEaOFd-21">
          <mxGeometry relative="1" as="geometry" />
        </mxCell>
        <mxCell id="7WEZ1o1NPe2onoyEaOFd-20" value="" style="shape=actor;whiteSpace=wrap;html=1;" vertex="1" parent="7WEZ1o1NPe2onoyEaOFd-11">
          <mxGeometry x="77.5" y="30" width="35" height="40" as="geometry" />
        </mxCell>
        <mxCell id="7WEZ1o1NPe2onoyEaOFd-21" value="提供下发/完结/校验数据源以及接口" style="rounded=1;whiteSpace=wrap;html=1;" vertex="1" parent="7WEZ1o1NPe2onoyEaOFd-11">
          <mxGeometry x="39.849999999999994" y="100" width="110.31" height="40" as="geometry" />
        </mxCell>
        <mxCell id="7WEZ1o1NPe2onoyEaOFd-25" style="edgeStyle=orthogonalEdgeStyle;rounded=0;orthogonalLoop=1;jettySize=auto;html=1;" edge="1" parent="7WEZ1o1NPe2onoyEaOFd-10" source="7WEZ1o1NPe2onoyEaOFd-21" target="7WEZ1o1NPe2onoyEaOFd-24">
          <mxGeometry relative="1" as="geometry" />
        </mxCell>
        <mxCell id="7WEZ1o1NPe2onoyEaOFd-12" value="流程管理员" style="swimlane;startSize=20;rounded=1;align=center;" vertex="1" parent="7WEZ1o1NPe2onoyEaOFd-10">
          <mxGeometry x="210" width="350" height="790" as="geometry" />
        </mxCell>
        <mxCell id="7WEZ1o1NPe2onoyEaOFd-28" value="" style="edgeStyle=orthogonalEdgeStyle;rounded=0;orthogonalLoop=1;jettySize=auto;html=1;entryX=0.5;entryY=0;entryDx=0;entryDy=0;" edge="1" parent="7WEZ1o1NPe2onoyEaOFd-12" source="7WEZ1o1NPe2onoyEaOFd-24" target="7WEZ1o1NPe2onoyEaOFd-34">
          <mxGeometry relative="1" as="geometry">
            <mxPoint x="103.125" y="180" as="targetPoint" />
          </mxGeometry>
        </mxCell>
        <mxCell id="7WEZ1o1NPe2onoyEaOFd-24" value="创建新的工单类型" style="rounded=1;whiteSpace=wrap;html=1;fillColor=#ffe6cc;strokeColor=#d79b00;" vertex="1" parent="7WEZ1o1NPe2onoyEaOFd-12">
          <mxGeometry x="50.00000000000001" y="100" width="106.25" height="40" as="geometry" />
        </mxCell>
        <mxCell id="7WEZ1o1NPe2onoyEaOFd-38" value="" style="edgeStyle=orthogonalEdgeStyle;rounded=0;orthogonalLoop=1;jettySize=auto;html=1;" edge="1" parent="7WEZ1o1NPe2onoyEaOFd-12" source="7WEZ1o1NPe2onoyEaOFd-34" target="7WEZ1o1NPe2onoyEaOFd-37">
          <mxGeometry relative="1" as="geometry" />
        </mxCell>
        <mxCell id="7WEZ1o1NPe2onoyEaOFd-42" value="否" style="edgeLabel;html=1;align=center;verticalAlign=middle;resizable=0;points=[];" vertex="1" connectable="0" parent="7WEZ1o1NPe2onoyEaOFd-38">
          <mxGeometry x="-0.12" relative="1" as="geometry">
            <mxPoint as="offset" />
          </mxGeometry>
        </mxCell>
        <mxCell id="7WEZ1o1NPe2onoyEaOFd-50" style="edgeStyle=orthogonalEdgeStyle;rounded=0;orthogonalLoop=1;jettySize=auto;html=1;" edge="1" parent="7WEZ1o1NPe2onoyEaOFd-12" source="7WEZ1o1NPe2onoyEaOFd-34" target="7WEZ1o1NPe2onoyEaOFd-35">
          <mxGeometry relative="1" as="geometry" />
        </mxCell>
        <mxCell id="7WEZ1o1NPe2onoyEaOFd-34" value="是否使用已&lt;br&gt;存在的表单？" style="rhombus;whiteSpace=wrap;html=1;" vertex="1" parent="7WEZ1o1NPe2onoyEaOFd-12">
          <mxGeometry x="35.63" y="180" width="134.37" height="50" as="geometry" />
        </mxCell>
        <mxCell id="7WEZ1o1NPe2onoyEaOFd-44" value="否" style="edgeStyle=orthogonalEdgeStyle;rounded=0;orthogonalLoop=1;jettySize=auto;html=1;entryX=0;entryY=0.5;entryDx=0;entryDy=0;entryPerimeter=0;" edge="1" parent="7WEZ1o1NPe2onoyEaOFd-12" source="7WEZ1o1NPe2onoyEaOFd-35" target="7WEZ1o1NPe2onoyEaOFd-45">
          <mxGeometry relative="1" as="geometry">
            <mxPoint x="257.18499999999995" y="295" as="targetPoint" />
          </mxGeometry>
        </mxCell>
        <mxCell id="7WEZ1o1NPe2onoyEaOFd-47" value="" style="edgeStyle=orthogonalEdgeStyle;rounded=0;orthogonalLoop=1;jettySize=auto;html=1;" edge="1" parent="7WEZ1o1NPe2onoyEaOFd-12" source="7WEZ1o1NPe2onoyEaOFd-35" target="7WEZ1o1NPe2onoyEaOFd-46">
          <mxGeometry relative="1" as="geometry" />
        </mxCell>
        <mxCell id="7WEZ1o1NPe2onoyEaOFd-35" value="是否使用&lt;br&gt;已存在的流程？" style="rhombus;whiteSpace=wrap;html=1;" vertex="1" parent="7WEZ1o1NPe2onoyEaOFd-12">
          <mxGeometry x="35.629999999999995" y="295" width="134.37" height="50" as="geometry" />
        </mxCell>
        <mxCell id="7WEZ1o1NPe2onoyEaOFd-51" style="edgeStyle=orthogonalEdgeStyle;rounded=0;orthogonalLoop=1;jettySize=auto;html=1;entryX=0.5;entryY=0;entryDx=0;entryDy=0;" edge="1" parent="7WEZ1o1NPe2onoyEaOFd-12" source="7WEZ1o1NPe2onoyEaOFd-37" target="7WEZ1o1NPe2onoyEaOFd-35">
          <mxGeometry relative="1" as="geometry">
            <Array as="points">
              <mxPoint x="260" y="250" />
              <mxPoint x="103" y="250" />
            </Array>
          </mxGeometry>
        </mxCell>
        <mxCell id="7WEZ1o1NPe2onoyEaOFd-52" value="是" style="edgeLabel;html=1;align=center;verticalAlign=middle;resizable=0;points=[];" vertex="1" connectable="0" parent="7WEZ1o1NPe2onoyEaOFd-51">
          <mxGeometry x="0.8607" y="-1" relative="1" as="geometry">
            <mxPoint x="1" y="-9" as="offset" />
          </mxGeometry>
        </mxCell>
        <mxCell id="7WEZ1o1NPe2onoyEaOFd-37" value="创建表单" style="rounded=1;whiteSpace=wrap;html=1;fillColor=#ffe6cc;strokeColor=#d79b00;" vertex="1" parent="7WEZ1o1NPe2onoyEaOFd-12">
          <mxGeometry x="220" y="187.5" width="80" height="35" as="geometry" />
        </mxCell>
        <mxCell id="7WEZ1o1NPe2onoyEaOFd-48" style="edgeStyle=orthogonalEdgeStyle;rounded=0;orthogonalLoop=1;jettySize=auto;html=1;entryX=0.5;entryY=0;entryDx=0;entryDy=0;" edge="1" parent="7WEZ1o1NPe2onoyEaOFd-12" source="7WEZ1o1NPe2onoyEaOFd-45" target="7WEZ1o1NPe2onoyEaOFd-46">
          <mxGeometry relative="1" as="geometry">
            <Array as="points">
              <mxPoint x="260" y="360" />
              <mxPoint x="103" y="360" />
            </Array>
          </mxGeometry>
        </mxCell>
        <mxCell id="7WEZ1o1NPe2onoyEaOFd-49" value="是" style="edgeLabel;html=1;align=center;verticalAlign=middle;resizable=0;points=[];" vertex="1" connectable="0" parent="7WEZ1o1NPe2onoyEaOFd-48">
          <mxGeometry x="0.7822" relative="1" as="geometry">
            <mxPoint as="offset" />
          </mxGeometry>
        </mxCell>
        <mxCell id="7WEZ1o1NPe2onoyEaOFd-45" value="创建流程图" style="rounded=1;whiteSpace=wrap;html=1;fillColor=#ffe6cc;strokeColor=#d79b00;" vertex="1" parent="7WEZ1o1NPe2onoyEaOFd-12">
          <mxGeometry x="220" y="302.5" width="80" height="35" as="geometry" />
        </mxCell>
        <mxCell id="7WEZ1o1NPe2onoyEaOFd-130" value="" style="edgeStyle=orthogonalEdgeStyle;rounded=0;orthogonalLoop=1;jettySize=auto;html=1;" edge="1" parent="7WEZ1o1NPe2onoyEaOFd-12" source="7WEZ1o1NPe2onoyEaOFd-46" target="7WEZ1o1NPe2onoyEaOFd-129">
          <mxGeometry relative="1" as="geometry" />
        </mxCell>
        <mxCell id="7WEZ1o1NPe2onoyEaOFd-46" value="工单类型绑定表单、绑定流程" style="rounded=1;whiteSpace=wrap;html=1;" vertex="1" parent="7WEZ1o1NPe2onoyEaOFd-12">
          <mxGeometry x="54.38" y="390" width="95.62" height="40" as="geometry" />
        </mxCell>
        <mxCell id="7WEZ1o1NPe2onoyEaOFd-128" value="" style="edgeStyle=orthogonalEdgeStyle;rounded=0;orthogonalLoop=1;jettySize=auto;html=1;" edge="1" parent="7WEZ1o1NPe2onoyEaOFd-12" source="7WEZ1o1NPe2onoyEaOFd-61" target="7WEZ1o1NPe2onoyEaOFd-127">
          <mxGeometry relative="1" as="geometry" />
        </mxCell>
        <mxCell id="7WEZ1o1NPe2onoyEaOFd-61" value="在流程设置中为工单绑定操作" style="whiteSpace=wrap;html=1;rounded=1;fillColor=#ffe6cc;strokeColor=#d79b00;" vertex="1" parent="7WEZ1o1NPe2onoyEaOFd-12">
          <mxGeometry x="52.89" y="640" width="97.11" height="40" as="geometry" />
        </mxCell>
        <mxCell id="7WEZ1o1NPe2onoyEaOFd-127" value="" style="ellipse;whiteSpace=wrap;html=1;rounded=1;" vertex="1" parent="7WEZ1o1NPe2onoyEaOFd-12">
          <mxGeometry x="83.00999999999999" y="710" width="36.88" height="35" as="geometry" />
        </mxCell>
        <mxCell id="7WEZ1o1NPe2onoyEaOFd-132" value="" style="edgeStyle=orthogonalEdgeStyle;rounded=0;orthogonalLoop=1;jettySize=auto;html=1;" edge="1" parent="7WEZ1o1NPe2onoyEaOFd-12" source="7WEZ1o1NPe2onoyEaOFd-129" target="7WEZ1o1NPe2onoyEaOFd-131">
          <mxGeometry relative="1" as="geometry" />
        </mxCell>
        <mxCell id="7WEZ1o1NPe2onoyEaOFd-137" value="否" style="edgeLabel;html=1;align=center;verticalAlign=middle;resizable=0;points=[];" vertex="1" connectable="0" parent="7WEZ1o1NPe2onoyEaOFd-132">
          <mxGeometry x="-0.0112" relative="1" as="geometry">
            <mxPoint as="offset" />
          </mxGeometry>
        </mxCell>
        <mxCell id="7WEZ1o1NPe2onoyEaOFd-135" value="" style="edgeStyle=orthogonalEdgeStyle;rounded=0;orthogonalLoop=1;jettySize=auto;html=1;" edge="1" parent="7WEZ1o1NPe2onoyEaOFd-12" source="7WEZ1o1NPe2onoyEaOFd-129" target="7WEZ1o1NPe2onoyEaOFd-134">
          <mxGeometry relative="1" as="geometry" />
        </mxCell>
        <mxCell id="7WEZ1o1NPe2onoyEaOFd-136" value="是" style="edgeLabel;html=1;align=center;verticalAlign=middle;resizable=0;points=[];" vertex="1" connectable="0" parent="7WEZ1o1NPe2onoyEaOFd-135">
          <mxGeometry x="-0.2355" y="1" relative="1" as="geometry">
            <mxPoint y="3" as="offset" />
          </mxGeometry>
        </mxCell>
        <mxCell id="7WEZ1o1NPe2onoyEaOFd-129" value="当前是否为&lt;br&gt;自定义工单&lt;br&gt;类型？" style="rhombus;whiteSpace=wrap;html=1;rounded=1;" vertex="1" parent="7WEZ1o1NPe2onoyEaOFd-12">
          <mxGeometry x="39.53" y="470" width="127.19" height="60" as="geometry" />
        </mxCell>
        <mxCell id="7WEZ1o1NPe2onoyEaOFd-140" style="edgeStyle=orthogonalEdgeStyle;rounded=0;orthogonalLoop=1;jettySize=auto;html=1;entryX=1;entryY=0.5;entryDx=0;entryDy=0;" edge="1" parent="7WEZ1o1NPe2onoyEaOFd-12" source="7WEZ1o1NPe2onoyEaOFd-131" target="7WEZ1o1NPe2onoyEaOFd-61">
          <mxGeometry relative="1" as="geometry" />
        </mxCell>
        <mxCell id="7WEZ1o1NPe2onoyEaOFd-131" value="设置为自&lt;br&gt;定义类型(直营/渠道)" style="whiteSpace=wrap;html=1;rounded=1;" vertex="1" parent="7WEZ1o1NPe2onoyEaOFd-12">
          <mxGeometry x="200" y="565" width="89.99" height="45" as="geometry" />
        </mxCell>
        <mxCell id="7WEZ1o1NPe2onoyEaOFd-138" style="edgeStyle=orthogonalEdgeStyle;rounded=0;orthogonalLoop=1;jettySize=auto;html=1;entryX=0.5;entryY=0;entryDx=0;entryDy=0;" edge="1" parent="7WEZ1o1NPe2onoyEaOFd-12" source="7WEZ1o1NPe2onoyEaOFd-134" target="7WEZ1o1NPe2onoyEaOFd-61">
          <mxGeometry relative="1" as="geometry" />
        </mxCell>
        <mxCell id="7WEZ1o1NPe2onoyEaOFd-134" value="设置为&lt;br&gt;普通类型" style="whiteSpace=wrap;html=1;rounded=1;" vertex="1" parent="7WEZ1o1NPe2onoyEaOFd-12">
          <mxGeometry x="64" y="565" width="77.42" height="45" as="geometry" />
        </mxCell>
        <mxCell id="7WEZ1o1NPe2onoyEaOFd-183" value="工单基础配置流程" style="swimlane;childLayout=stackLayout;resizeParent=1;resizeParentMax=0;startSize=20;horizontal=0;horizontalStack=1;" vertex="1" parent="1">
          <mxGeometry x="860" y="120" width="560" height="790" as="geometry">
            <mxRectangle x="140" y="130" width="40" height="140" as="alternateBounds" />
          </mxGeometry>
        </mxCell>
        <mxCell id="7WEZ1o1NPe2onoyEaOFd-184" value="工单接入方" style="swimlane;startSize=20;" vertex="1" parent="7WEZ1o1NPe2onoyEaOFd-183">
          <mxGeometry x="20" width="190" height="790" as="geometry" />
        </mxCell>
        <mxCell id="7WEZ1o1NPe2onoyEaOFd-185" value="" style="edgeStyle=orthogonalEdgeStyle;rounded=0;orthogonalLoop=1;jettySize=auto;html=1;" edge="1" parent="7WEZ1o1NPe2onoyEaOFd-184" source="7WEZ1o1NPe2onoyEaOFd-186" target="7WEZ1o1NPe2onoyEaOFd-187">
          <mxGeometry relative="1" as="geometry" />
        </mxCell>
        <mxCell id="7WEZ1o1NPe2onoyEaOFd-186" value="" style="shape=actor;whiteSpace=wrap;html=1;" vertex="1" parent="7WEZ1o1NPe2onoyEaOFd-184">
          <mxGeometry x="77.5" y="30" width="35" height="40" as="geometry" />
        </mxCell>
        <mxCell id="7WEZ1o1NPe2onoyEaOFd-187" value="提供下发/完结/校验数据源以及接口" style="rounded=1;whiteSpace=wrap;html=1;" vertex="1" parent="7WEZ1o1NPe2onoyEaOFd-184">
          <mxGeometry x="39.849999999999994" y="100" width="110.31" height="40" as="geometry" />
        </mxCell>
        <mxCell id="7WEZ1o1NPe2onoyEaOFd-188" style="edgeStyle=orthogonalEdgeStyle;rounded=0;orthogonalLoop=1;jettySize=auto;html=1;" edge="1" parent="7WEZ1o1NPe2onoyEaOFd-183" source="7WEZ1o1NPe2onoyEaOFd-187" target="7WEZ1o1NPe2onoyEaOFd-191">
          <mxGeometry relative="1" as="geometry" />
        </mxCell>
        <mxCell id="7WEZ1o1NPe2onoyEaOFd-189" value="流程管理员" style="swimlane;startSize=20;rounded=1;align=center;" vertex="1" parent="7WEZ1o1NPe2onoyEaOFd-183">
          <mxGeometry x="210" width="350" height="790" as="geometry" />
        </mxCell>
        <mxCell id="7WEZ1o1NPe2onoyEaOFd-190" value="" style="edgeStyle=orthogonalEdgeStyle;rounded=0;orthogonalLoop=1;jettySize=auto;html=1;entryX=0.5;entryY=0;entryDx=0;entryDy=0;" edge="1" parent="7WEZ1o1NPe2onoyEaOFd-189" source="7WEZ1o1NPe2onoyEaOFd-191" target="7WEZ1o1NPe2onoyEaOFd-195">
          <mxGeometry relative="1" as="geometry">
            <mxPoint x="103.125" y="180" as="targetPoint" />
          </mxGeometry>
        </mxCell>
        <mxCell id="7WEZ1o1NPe2onoyEaOFd-191" value="创建新的工单类型" style="rounded=1;whiteSpace=wrap;html=1;fillColor=#ffe6cc;strokeColor=#d79b00;" vertex="1" parent="7WEZ1o1NPe2onoyEaOFd-189">
          <mxGeometry x="50.00000000000001" y="100" width="106.25" height="40" as="geometry" />
        </mxCell>
        <mxCell id="7WEZ1o1NPe2onoyEaOFd-192" value="" style="edgeStyle=orthogonalEdgeStyle;rounded=0;orthogonalLoop=1;jettySize=auto;html=1;" edge="1" parent="7WEZ1o1NPe2onoyEaOFd-189" source="7WEZ1o1NPe2onoyEaOFd-195" target="7WEZ1o1NPe2onoyEaOFd-201">
          <mxGeometry relative="1" as="geometry" />
        </mxCell>
        <mxCell id="7WEZ1o1NPe2onoyEaOFd-193" value="否" style="edgeLabel;html=1;align=center;verticalAlign=middle;resizable=0;points=[];" vertex="1" connectable="0" parent="7WEZ1o1NPe2onoyEaOFd-192">
          <mxGeometry x="-0.12" relative="1" as="geometry">
            <mxPoint as="offset" />
          </mxGeometry>
        </mxCell>
        <mxCell id="7WEZ1o1NPe2onoyEaOFd-194" style="edgeStyle=orthogonalEdgeStyle;rounded=0;orthogonalLoop=1;jettySize=auto;html=1;" edge="1" parent="7WEZ1o1NPe2onoyEaOFd-189" source="7WEZ1o1NPe2onoyEaOFd-195" target="7WEZ1o1NPe2onoyEaOFd-198">
          <mxGeometry relative="1" as="geometry" />
        </mxCell>
        <mxCell id="7WEZ1o1NPe2onoyEaOFd-195" value="是否使用已&lt;br&gt;存在的表单？" style="rhombus;whiteSpace=wrap;html=1;" vertex="1" parent="7WEZ1o1NPe2onoyEaOFd-189">
          <mxGeometry x="35.63" y="180" width="134.37" height="50" as="geometry" />
        </mxCell>
        <mxCell id="7WEZ1o1NPe2onoyEaOFd-196" value="否" style="edgeStyle=orthogonalEdgeStyle;rounded=0;orthogonalLoop=1;jettySize=auto;html=1;entryX=0;entryY=0.5;entryDx=0;entryDy=0;entryPerimeter=0;" edge="1" parent="7WEZ1o1NPe2onoyEaOFd-189" source="7WEZ1o1NPe2onoyEaOFd-198" target="7WEZ1o1NPe2onoyEaOFd-204">
          <mxGeometry relative="1" as="geometry">
            <mxPoint x="257.18499999999995" y="295" as="targetPoint" />
          </mxGeometry>
        </mxCell>
        <mxCell id="7WEZ1o1NPe2onoyEaOFd-197" value="" style="edgeStyle=orthogonalEdgeStyle;rounded=0;orthogonalLoop=1;jettySize=auto;html=1;" edge="1" parent="7WEZ1o1NPe2onoyEaOFd-189" source="7WEZ1o1NPe2onoyEaOFd-198" target="7WEZ1o1NPe2onoyEaOFd-206">
          <mxGeometry relative="1" as="geometry" />
        </mxCell>
        <mxCell id="7WEZ1o1NPe2onoyEaOFd-198" value="是否使用&lt;br&gt;已存在的流程？" style="rhombus;whiteSpace=wrap;html=1;" vertex="1" parent="7WEZ1o1NPe2onoyEaOFd-189">
          <mxGeometry x="35.629999999999995" y="295" width="134.37" height="50" as="geometry" />
        </mxCell>
        <mxCell id="7WEZ1o1NPe2onoyEaOFd-199" style="edgeStyle=orthogonalEdgeStyle;rounded=0;orthogonalLoop=1;jettySize=auto;html=1;entryX=0.5;entryY=0;entryDx=0;entryDy=0;" edge="1" parent="7WEZ1o1NPe2onoyEaOFd-189" source="7WEZ1o1NPe2onoyEaOFd-201" target="7WEZ1o1NPe2onoyEaOFd-198">
          <mxGeometry relative="1" as="geometry">
            <Array as="points">
              <mxPoint x="260" y="250" />
              <mxPoint x="103" y="250" />
            </Array>
          </mxGeometry>
        </mxCell>
        <mxCell id="7WEZ1o1NPe2onoyEaOFd-200" value="是" style="edgeLabel;html=1;align=center;verticalAlign=middle;resizable=0;points=[];" vertex="1" connectable="0" parent="7WEZ1o1NPe2onoyEaOFd-199">
          <mxGeometry x="0.8607" y="-1" relative="1" as="geometry">
            <mxPoint x="1" y="-9" as="offset" />
          </mxGeometry>
        </mxCell>
        <mxCell id="7WEZ1o1NPe2onoyEaOFd-201" value="创建表单" style="rounded=1;whiteSpace=wrap;html=1;fillColor=#ffe6cc;strokeColor=#d79b00;" vertex="1" parent="7WEZ1o1NPe2onoyEaOFd-189">
          <mxGeometry x="220" y="187.5" width="80" height="35" as="geometry" />
        </mxCell>
        <mxCell id="7WEZ1o1NPe2onoyEaOFd-202" style="edgeStyle=orthogonalEdgeStyle;rounded=0;orthogonalLoop=1;jettySize=auto;html=1;entryX=0.5;entryY=0;entryDx=0;entryDy=0;" edge="1" parent="7WEZ1o1NPe2onoyEaOFd-189" source="7WEZ1o1NPe2onoyEaOFd-204" target="7WEZ1o1NPe2onoyEaOFd-206">
          <mxGeometry relative="1" as="geometry">
            <Array as="points">
              <mxPoint x="260" y="360" />
              <mxPoint x="103" y="360" />
            </Array>
          </mxGeometry>
        </mxCell>
        <mxCell id="7WEZ1o1NPe2onoyEaOFd-203" value="是" style="edgeLabel;html=1;align=center;verticalAlign=middle;resizable=0;points=[];" vertex="1" connectable="0" parent="7WEZ1o1NPe2onoyEaOFd-202">
          <mxGeometry x="0.7822" relative="1" as="geometry">
            <mxPoint as="offset" />
          </mxGeometry>
        </mxCell>
        <mxCell id="7WEZ1o1NPe2onoyEaOFd-204" value="创建流程图" style="rounded=1;whiteSpace=wrap;html=1;fillColor=#ffe6cc;strokeColor=#d79b00;" vertex="1" parent="7WEZ1o1NPe2onoyEaOFd-189">
          <mxGeometry x="220" y="302.5" width="80" height="35" as="geometry" />
        </mxCell>
        <mxCell id="7WEZ1o1NPe2onoyEaOFd-205" value="" style="edgeStyle=orthogonalEdgeStyle;rounded=0;orthogonalLoop=1;jettySize=auto;html=1;" edge="1" parent="7WEZ1o1NPe2onoyEaOFd-189" source="7WEZ1o1NPe2onoyEaOFd-206" target="7WEZ1o1NPe2onoyEaOFd-214">
          <mxGeometry relative="1" as="geometry" />
        </mxCell>
        <mxCell id="7WEZ1o1NPe2onoyEaOFd-206" value="工单类型绑定表单、绑定流程" style="rounded=1;whiteSpace=wrap;html=1;" vertex="1" parent="7WEZ1o1NPe2onoyEaOFd-189">
          <mxGeometry x="54.38" y="390" width="95.62" height="40" as="geometry" />
        </mxCell>
        <mxCell id="7WEZ1o1NPe2onoyEaOFd-207" value="" style="edgeStyle=orthogonalEdgeStyle;rounded=0;orthogonalLoop=1;jettySize=auto;html=1;" edge="1" parent="7WEZ1o1NPe2onoyEaOFd-189" source="7WEZ1o1NPe2onoyEaOFd-208" target="7WEZ1o1NPe2onoyEaOFd-209">
          <mxGeometry relative="1" as="geometry" />
        </mxCell>
        <mxCell id="7WEZ1o1NPe2onoyEaOFd-208" value="在流程设置中为工单绑定操作" style="whiteSpace=wrap;html=1;rounded=1;fillColor=#ffe6cc;strokeColor=#d79b00;" vertex="1" parent="7WEZ1o1NPe2onoyEaOFd-189">
          <mxGeometry x="52.89" y="640" width="97.11" height="40" as="geometry" />
        </mxCell>
        <mxCell id="7WEZ1o1NPe2onoyEaOFd-209" value="" style="ellipse;whiteSpace=wrap;html=1;rounded=1;" vertex="1" parent="7WEZ1o1NPe2onoyEaOFd-189">
          <mxGeometry x="83.00999999999999" y="710" width="36.88" height="35" as="geometry" />
        </mxCell>
        <mxCell id="7WEZ1o1NPe2onoyEaOFd-210" value="" style="edgeStyle=orthogonalEdgeStyle;rounded=0;orthogonalLoop=1;jettySize=auto;html=1;" edge="1" parent="7WEZ1o1NPe2onoyEaOFd-189" source="7WEZ1o1NPe2onoyEaOFd-214" target="7WEZ1o1NPe2onoyEaOFd-216">
          <mxGeometry relative="1" as="geometry" />
        </mxCell>
        <mxCell id="7WEZ1o1NPe2onoyEaOFd-211" value="否" style="edgeLabel;html=1;align=center;verticalAlign=middle;resizable=0;points=[];" vertex="1" connectable="0" parent="7WEZ1o1NPe2onoyEaOFd-210">
          <mxGeometry x="-0.0112" relative="1" as="geometry">
            <mxPoint as="offset" />
          </mxGeometry>
        </mxCell>
        <mxCell id="7WEZ1o1NPe2onoyEaOFd-212" value="" style="edgeStyle=orthogonalEdgeStyle;rounded=0;orthogonalLoop=1;jettySize=auto;html=1;" edge="1" parent="7WEZ1o1NPe2onoyEaOFd-189" source="7WEZ1o1NPe2onoyEaOFd-214" target="7WEZ1o1NPe2onoyEaOFd-218">
          <mxGeometry relative="1" as="geometry" />
        </mxCell>
        <mxCell id="7WEZ1o1NPe2onoyEaOFd-213" value="是" style="edgeLabel;html=1;align=center;verticalAlign=middle;resizable=0;points=[];" vertex="1" connectable="0" parent="7WEZ1o1NPe2onoyEaOFd-212">
          <mxGeometry x="-0.2355" y="1" relative="1" as="geometry">
            <mxPoint y="3" as="offset" />
          </mxGeometry>
        </mxCell>
        <mxCell id="7WEZ1o1NPe2onoyEaOFd-214" value="当前是否为&lt;br&gt;自定义工单&lt;br&gt;类型？" style="rhombus;whiteSpace=wrap;html=1;rounded=1;" vertex="1" parent="7WEZ1o1NPe2onoyEaOFd-189">
          <mxGeometry x="39.53" y="470" width="127.19" height="60" as="geometry" />
        </mxCell>
        <mxCell id="7WEZ1o1NPe2onoyEaOFd-215" style="edgeStyle=orthogonalEdgeStyle;rounded=0;orthogonalLoop=1;jettySize=auto;html=1;entryX=1;entryY=0.5;entryDx=0;entryDy=0;" edge="1" parent="7WEZ1o1NPe2onoyEaOFd-189" source="7WEZ1o1NPe2onoyEaOFd-216" target="7WEZ1o1NPe2onoyEaOFd-208">
          <mxGeometry relative="1" as="geometry" />
        </mxCell>
        <mxCell id="7WEZ1o1NPe2onoyEaOFd-216" value="设置为自&lt;br&gt;定义类型(直营/渠道)" style="whiteSpace=wrap;html=1;rounded=1;" vertex="1" parent="7WEZ1o1NPe2onoyEaOFd-189">
          <mxGeometry x="200" y="565" width="89.99" height="45" as="geometry" />
        </mxCell>
        <mxCell id="7WEZ1o1NPe2onoyEaOFd-217" style="edgeStyle=orthogonalEdgeStyle;rounded=0;orthogonalLoop=1;jettySize=auto;html=1;entryX=0.5;entryY=0;entryDx=0;entryDy=0;" edge="1" parent="7WEZ1o1NPe2onoyEaOFd-189" source="7WEZ1o1NPe2onoyEaOFd-218" target="7WEZ1o1NPe2onoyEaOFd-208">
          <mxGeometry relative="1" as="geometry" />
        </mxCell>
        <mxCell id="7WEZ1o1NPe2onoyEaOFd-218" value="设置为&lt;br&gt;普通类型" style="whiteSpace=wrap;html=1;rounded=1;" vertex="1" parent="7WEZ1o1NPe2onoyEaOFd-189">
          <mxGeometry x="64" y="565" width="77.42" height="45" as="geometry" />
        </mxCell>
      </root>
    </mxGraphModel>
  </diagram>
</mxfile>
